<svg height="200px" width="200px" version="1.1" id="Layer_1" xmlns="http://www.w3.org/2000/svg" xmlns:xlink="http://www.w3.org/1999/xlink" viewBox="0 0 512 512" xml:space="preserve" fill="#000000"><g id="SVGRepo_bgCarrier" stroke-width="0"></g><g id="SVGRepo_tracerCarrier" stroke-linecap="round" stroke-linejoin="round"></g><g id="SVGRepo_iconCarrier"> <path style="fill:#E87C00;" d="M170.132,461.828l37.524-79.346c3.137-6.635,1.768-14.525-3.421-19.714l-55.002-55.002 c-5.189-5.189-13.08-6.56-19.714-3.421l-79.347,37.523c-5.109,2.416-8.724,7.168-9.691,12.736c-0.966,5.57,0.837,11.26,4.833,15.257 l96.824,96.824c3.997,3.997,9.687,5.8,15.257,4.833C162.965,470.552,167.717,466.937,170.132,461.828z"></path> <path style="fill:#C46900;" d="M170.132,461.828l37.524-79.346c3.137-6.635,1.768-14.525-3.421-19.714l-28.801-28.802 l-83.008,83.008l49.712,49.712c3.997,3.997,9.687,5.8,15.257,4.833C162.965,470.552,167.717,466.937,170.132,461.828z"></path> <path style="fill:#FFAE00;" d="M434.76,192.343L319.657,77.238c-6.785-6.785-17.786-6.785-24.572,0L94.609,277.714 c-6.785,6.785-6.785,17.786,0,24.572l115.105,115.105c6.785,6.785,17.787,6.785,24.572,0L434.76,216.916 C441.547,210.13,441.547,199.128,434.76,192.343z"></path> <path style="fill:#285B91;" d="M484.1,163.361l27.584-142.687c1.096-5.665-0.693-11.505-4.773-15.584 c-4.079-4.08-9.919-5.869-15.584-4.773L348.639,27.899c-6.311,1.22-11.432,5.824-13.315,11.97 c-1.882,6.147-0.218,12.83,4.327,17.375l115.105,115.105c4.546,4.546,11.228,6.21,17.375,4.327 C478.276,174.793,482.881,169.672,484.1,163.361z"></path> <path style="fill:#224E7D;" d="M484.491,161.337L350.663,27.509l-2.024,0.392c-6.311,1.22-11.432,5.824-13.315,11.97 c-1.882,6.147-0.218,12.83,4.327,17.375L454.755,172.35c4.546,4.546,11.228,6.21,17.375,4.327c6.147-1.883,10.75-7.005,11.97-13.315 L484.491,161.337z"></path> <path style="fill:#424242;" d="M126.485,482.339l-96.824-96.824c-6.785-6.785-17.787-6.785-24.572,0s-6.785,17.787,0,24.572 l96.824,96.824c6.785,6.785,17.787,6.785,24.572,0C133.271,500.126,133.271,489.124,126.485,482.339z"></path> <path style="fill:#DE9700;" d="M434.76,192.343l-58.853-58.852L150.862,358.538l58.853,58.852c6.785,6.785,17.787,6.785,24.572,0 l200.474-200.474C441.547,210.13,441.547,199.128,434.76,192.343z"></path> <path style="fill:#285B91;" d="M212.212,160.111L94.609,277.714c-6.785,6.785-6.785,17.786,0,24.572l115.105,115.105 c6.785,6.785,17.787,6.785,24.572,0l117.603-117.603L212.212,160.111z"></path> <path style="fill:#224E7D;" d="M280.751,228.648l-129.888,129.89l58.853,58.852c6.785,6.785,17.787,6.785,24.572,0L351.89,299.787 L280.751,228.648z"></path> <path style="fill:#DE9700;" d="M333.44,175.959c-30.817-30.817-80.96-30.817-111.777,0s-30.817,80.96,0,111.777 s80.96,30.817,111.777,0C364.257,256.921,364.257,206.776,333.44,175.959z"></path> <path style="fill:#9CC8EF;" d="M318.696,190.703c-22.688-22.688-59.604-22.688-82.29,0c-22.688,22.688-22.688,59.604,0,82.291 s59.604,22.688,82.29,0C341.384,250.306,341.384,213.39,318.696,190.703z"></path> <path style="fill:#C78700;" d="M333.44,175.959L221.662,287.737c30.817,30.817,80.96,30.817,111.777,0 C364.257,256.921,364.257,206.776,333.44,175.959z"></path> <g> <path style="fill:#66A8E5;" d="M301.807,207.592c19.793,19.794,22.313,50.414,7.569,72.97c3.298-2.156,6.426-4.675,9.32-7.569 c22.687-22.687,22.688-59.603,0-82.29s-59.604-22.687-82.29,0c-2.894,2.894-5.414,6.022-7.569,9.32 C251.393,185.279,282.014,187.798,301.807,207.592z"></path> <path style="fill:#66A8E5;" d="M318.696,190.703l-82.291,82.291c22.688,22.688,59.604,22.687,82.291-0.001 C341.384,250.306,341.384,213.39,318.696,190.703z"></path> </g> <path style="fill:#224E7D;" d="M484.1,163.361l27.584-142.687c1.096-5.665-0.693-11.505-4.773-15.584L397.203,114.798l57.552,57.552 c4.546,4.546,11.228,6.21,17.375,4.327C478.276,174.793,482.881,169.672,484.1,163.361z"></path> <polygon style="fill:#C46900;" points="81.272,327.16 184.84,430.727 197.109,404.785 107.215,314.891 "></polygon> <path style="fill:#353535;" d="M126.485,482.339l-49.712-49.712L52.2,457.199l49.712,49.712c6.785,6.785,17.787,6.785,24.572,0 C133.271,500.126,133.271,489.124,126.485,482.339z"></path> </g></svg>